# xmcd
#
# Track frame offsets: 
#        150
#        14876
#        35834
#        50022
#        65752
#        83217
#        100468
#        122168
#
# Disc length: 1947 seconds
#
# Revision: 0
# Processed by: cddbd v1.5.2PL0 Copyright (c) Steve Scherf et al.
# Submitted via: ExactAudioCopyFreeDBPlugin 1.0
#
DISCID=79079908
DTITLE=Eric Chruch - Caught In The Act [CD2]
DYEAR=2013
DGENRE=Country
TTITLE0=Young And Wild
TTITLE1=Carolina
TTITLE2=Longer Gone
TTITLE3=Two Pink Lines
TTITLE4=Sinners Like Me
TTITLE5=Faster Than My Angels Can Fly
TTITLE6=Where She Told Me To Go
TTITLE7=Lightning
EXTD=
EXTT0=
EXTT1=
EXTT2=
EXTT3=
EXTT4=
EXTT5=
EXTT6=
EXTT7=
PLAYORDER=
